<svg xmlns="http://www.w3.org/2000/svg" width="1584" height="72" viewBox="0 0 1584 72"><defs><style>.a{fill:#ff0;}.b{fill:#61b050;}.c{fill:#ff5050;}.d{fill:#e3bb4a;}</style></defs><g transform="translate(-181 -988)"><g transform="translate(-323 344)"><circle class="a" cx="10" cy="10" r="10" transform="translate(504 674)"/><circle class="a" cx="10" cy="10" r="10" transform="translate(521 674)"/><circle class="a" cx="10" cy="10" r="10" transform="translate(504 690)"/><circle class="a" cx="10" cy="10" r="10" transform="translate(521 690)"/><circle class="b" cx="5.5" cy="5.5" r="5.5" transform="translate(517 687)"/></g><g transform="translate(-37 344)"><circle class="c" cx="10" cy="10" r="10" transform="translate(504 674)"/><circle class="c" cx="10" cy="10" r="10" transform="translate(521 674)"/><circle class="c" cx="10" cy="10" r="10" transform="translate(504 690)"/><circle class="c" cx="10" cy="10" r="10" transform="translate(521 690)"/><circle class="b" cx="5.5" cy="5.5" r="5.5" transform="translate(517 687)"/><circle class="b" cx="5.5" cy="5.5" r="5.5" transform="translate(517 687)"/></g><g transform="translate(763 332)"><circle class="c" cx="10" cy="10" r="10" transform="translate(504 674)"/><circle class="c" cx="10" cy="10" r="10" transform="translate(521 674)"/><circle class="c" cx="10" cy="10" r="10" transform="translate(504 690)"/><circle class="c" cx="10" cy="10" r="10" transform="translate(521 690)"/><circle class="b" cx="5.5" cy="5.5" r="5.5" transform="translate(517 687)"/><circle class="b" cx="5.5" cy="5.5" r="5.5" transform="translate(517 687)"/></g><g transform="translate(954 323)"><circle class="d" cx="10" cy="10" r="10" transform="translate(504 674)"/><circle class="d" cx="10" cy="10" r="10" transform="translate(521 674)"/><circle class="d" cx="10" cy="10" r="10" transform="translate(504 690)"/><circle class="d" cx="10" cy="10" r="10" transform="translate(521 690)"/><circle class="b" cx="5.5" cy="5.5" r="5.5" transform="translate(517 687)"/></g><g transform="translate(-209 314)"><circle class="a" cx="10" cy="10" r="10" transform="translate(504 674)"/><circle class="a" cx="10" cy="10" r="10" transform="translate(521 674)"/><circle class="a" cx="10" cy="10" r="10" transform="translate(504 690)"/><circle class="a" cx="10" cy="10" r="10" transform="translate(521 690)"/><circle class="b" cx="5.5" cy="5.5" r="5.5" transform="translate(517 687)"/></g><g transform="translate(456 350)"><circle class="a" cx="10" cy="10" r="10" transform="translate(504 674)"/><circle class="a" cx="10" cy="10" r="10" transform="translate(521 674)"/><circle class="a" cx="10" cy="10" r="10" transform="translate(504 690)"/><circle class="a" cx="10" cy="10" r="10" transform="translate(521 690)"/><circle class="b" cx="5.5" cy="5.5" r="5.5" transform="translate(517 687)"/></g><g transform="translate(102 326)"><circle class="c" cx="10" cy="10" r="10" transform="translate(504 674)"/><circle class="c" cx="10" cy="10" r="10" transform="translate(521 674)"/><circle class="c" cx="10" cy="10" r="10" transform="translate(504 690)"/><circle class="c" cx="10" cy="10" r="10" transform="translate(521 690)"/><circle class="b" cx="5.5" cy="5.5" r="5.5" transform="translate(517 687)"/><circle class="b" cx="5.5" cy="5.5" r="5.5" transform="translate(517 687)"/></g><g transform="translate(180 314)"><circle class="d" cx="10" cy="10" r="10" transform="translate(504 674)"/><circle class="d" cx="10" cy="10" r="10" transform="translate(521 674)"/><circle class="d" cx="10" cy="10" r="10" transform="translate(504 690)"/><circle class="d" cx="10" cy="10" r="10" transform="translate(521 690)"/><circle class="b" cx="5.5" cy="5.5" r="5.5" transform="translate(517 687)"/></g><g transform="translate(1224 350)"><circle class="a" cx="10" cy="10" r="10" transform="translate(504 674)"/><circle class="a" cx="10" cy="10" r="10" transform="translate(521 674)"/><circle class="a" cx="10" cy="10" r="10" transform="translate(504 690)"/><circle class="a" cx="10" cy="10" r="10" transform="translate(521 690)"/><circle class="b" cx="5.5" cy="5.5" r="5.5" transform="translate(517 687)"/></g><g transform="translate(572 314)"><circle class="a" cx="10" cy="10" r="10" transform="translate(504 674)"/><circle class="a" cx="10" cy="10" r="10" transform="translate(521 674)"/><circle class="a" cx="10" cy="10" r="10" transform="translate(504 690)"/><circle class="a" cx="10" cy="10" r="10" transform="translate(521 690)"/><circle class="b" cx="5.5" cy="5.5" r="5.5" transform="translate(517 687)"/></g></g></svg>