<svg xmlns="http://www.w3.org/2000/svg" width="158.259" height="354.28" viewBox="0 0 158.259 354.28"><defs><style>.a{fill:rgba(41,41,41,0.23);}.b,.c{fill:#ffd8c5;}.c,.d,.e,.h,.i,.k{fill-rule:evenodd;}.d{fill:#f657ea;}.e,.f{fill:#74591a;}.g{fill:#fff;}.i,.j{fill:#ee05ff;}.k{fill:#32cdc8;}</style></defs><g transform="translate(-941.5 -588.72)"><g transform="translate(941.5 588.72)"><ellipse class="a" cx="79.129" cy="10.52" rx="79.129" ry="10.52" transform="translate(0 333.24)"/><g transform="translate(16.513 0)"><g transform="translate(0 0)"><circle class="b" cx="41.256" cy="41.256" r="41.256" transform="translate(34.703 21.346)"/><path class="c" d="M28.9,38.784s7.474,5.9-5.381,19.058c0,0,21.948,15.122,36.846-.648,0,0-16.966-5.281-7.872-18.734" transform="translate(34.95 57.35)"/><path class="c" d="M63.424,89.064c.648,0,.648-1.271-17.738-1.893,0,0,.623-.648-1.271,43.722-1.271,11.41-1.271,12.033-36.771-4.434L4.48,144.843s0,.623,27.255,10.762C52.661,161.958,62.153,176.532,63.424,89.064Z" transform="translate(6.556 129.99)"/><path class="c" d="M29.41,91.176s8.246-11.41,23.642-4.434c7.9,74.165,29.6,108.346,29.6,108.346L70.74,205.352c-27.554-55.356-40.06-115-40.06-115" transform="translate(43.734 125.983)"/><path class="c" d="M39.762,103.679c0,.3.747,0-9.492-3.762C27.33,96.8,22.223,88.059,28.078,53.43l-9.965.3c-13.179,52.317,14.275,55.257,14.275,55.257l7.3-5.306Z" transform="translate(21.548 79.674)"/><path class="c" d="M44.173,99.917c2.94-3.114,8.047-11.858,2.217-46.487l9.965.3c13.179,52.317-14.275,55.257-14.275,55.257l-7.424-5.306C34.657,103.978,33.934,103.679,44.173,99.917Z" transform="translate(51.542 79.674)"/><path class="d" d="M26.967,80a56.652,56.652,0,0,1,49.6,1.071c9.566,31.714,9.965,30.643,9.965,30.643-47.334,20.952-71.774,0-71.774,0L26.942,80.548" transform="translate(21.887 111.549)"/><path class="e" d="M46.963,18.275S52.095,43.188,23.57,77.667c0,0-36.572-35.575,17.563-70.777" transform="translate(17.013 10.27)"/><circle class="f" cx="16" cy="16" r="16" transform="translate(30.611 2.274)"/><g transform="translate(54.684 66.363)"><path class="g" d="M25.861,26.64c2.167,0,3.911,2.491,3.911,5.58h0c0,3.089-1.744,5.605-3.911,5.605S22,35.31,22,32.22,23.694,26.64,25.861,26.64Z" transform="translate(-22 -26.64)"/></g><g transform="translate(84.953 65.865)"><path class="g" d="M38.061,26.44c2.167,0,3.911,2.491,3.911,5.605h0c0,3.089-1.744,5.58-3.911,5.58s-3.911-2.491-3.911-5.58S35.894,26.44,38.061,26.44Z" transform="translate(-34.15 -26.44)"/></g><path class="h" d="M45.524,36.59a30.244,30.244,0,0,1-14.948,1.121A31.167,31.167,0,0,1,26.64,36.69a10.962,10.962,0,0,0,10.139,5.58A11.485,11.485,0,0,0,45.524,36.59Z" transform="translate(39.603 54.561)"/><path class="e" d="M22.68,21.027s2.491-15.3,28.9-14.225C101.678,18.536,82.3,65.123,82.3,65.123,30.727,56.229,23.477,20.679,23.477,20.679" transform="translate(33.698 10.059)"/><g transform="translate(27.628)"><path class="i" d="M20.73,18.333s.324,0,.972-7.723c8.5-24.738,14.723,1.545,14.723,1.545,12.456-1.545,13.4,4.036,13.4,4.036-6.527,9.566-22.247,7.723-22.247,7.723" transform="translate(3.161 -0.002)"/><path class="i" d="M40.263,14.273s-.349,0-1,7.748c-8.5,24.738-14.723-1.545-14.723-1.545-12.456,1.545-13.4-4.036-13.4-4.036,6.527-9.591,22.247-7.723,22.247-7.723" transform="translate(-11.14 12.777)"/><path class="j" d="M19.26,12.86a6.552,6.552,0,0,1,13.079,0h0a6.552,6.552,0,0,1-13.079,0Z" transform="translate(0.969 10.005)"/></g><path class="k" d="M71.208,47.059c-19.183,10.812-29.9-1.495-29.9-1.495h.5A31.813,31.813,0,0,0,29.8,48.529S-10.057,82.609,31.248,77.2c0,0,7.2-4.335-6.253,56.826,0,0,15.869,12.98,60.09,0,0,0-7.225-2.691-6.253-56.826,0,0,46.612,2.765,6.253-27.055C74.073,42,71.108,47.059,71.108,47.059Z" transform="translate(18.528 67.859)"/><path class="k" d="M46.21,140.981v8.869c0,9.417,7.8-.523,7.8-.523l17.439-16.692c4.584-4.684-1.4-9.392-16.094.523Z" transform="translate(68.787 189.856)"/><path class="k" d="M16.368,108.227c1.121.5-2.84-4.36-4.983-7.275S2.89,103.444.05,130.6c0,0,3.961,26.731,16.442-22.421Z" transform="translate(-0.05 149.491)"/><g transform="translate(58.545 68.555)"><path d="M25.593,27.52c1.121,0,2.018,1.3,2.018,2.915h0c0,1.594-.9,2.89-2.018,2.89s-2.043-1.3-2.043-2.89S24.447,27.52,25.593,27.52Z" transform="translate(-23.55 -27.52)"/></g><g transform="translate(88.714 68.555)"><path d="M37.678,27.52c1.146,0,2.043,1.3,2.043,2.915h0c0,1.594-.9,2.89-2.043,2.89s-2.018-1.3-2.018-2.89S36.507,27.52,37.678,27.52Z" transform="translate(-35.66 -27.52)"/></g></g></g></g></g></svg>