<svg xmlns="http://www.w3.org/2000/svg" width="152.5" height="341.388" viewBox="0 0 152.5 341.388"><defs><style>.a{fill:rgba(41,41,41,0.23);}.b,.c{fill:#ffd8c5;}.c,.d,.e,.g,.i,.j{fill-rule:evenodd;}.d{fill:#244be8;}.f{fill:#fff;}.g,.h{fill:#a21313;}.i{fill:#fda622;}.j{fill:#103d9c;}.k,.l,.n{fill:none;}.k{stroke:#f20101;}.l{stroke:#850b0b;}.m{stroke:none;}</style></defs><g transform="translate(-1250.125 -643.618)"><g transform="translate(308.625 51.897)"><g transform="translate(941.5 591.72)"><ellipse class="a" cx="76.25" cy="10.137" rx="76.25" ry="10.137" transform="translate(0 321.114)"/><g transform="translate(15.912 0)"><g transform="translate(0 0)"><circle class="b" cx="39.754" cy="39.754" r="39.754" transform="translate(33.441 20.569)"/><path class="c" d="M28.705,38.772s7.2,5.689-5.185,18.365c0,0,21.149,14.572,35.505-.624,0,0-16.348-5.089-7.586-18.053" transform="translate(32.823 53.864)"/><path class="c" d="M61.279,88.995c.624,0,.624-1.224-17.092-1.824,0,0,.6-.624-1.224,42.131-1.224,10.995-1.224,11.6-35.433-4.273L4.48,142.745s0,.6,26.263,10.371C50.908,159.237,60.054,173.281,61.279,88.995Z" transform="translate(6.155 122.088)"/><path class="c" d="M29.41,90.933s7.946-10.995,22.782-4.273c7.61,71.467,28.519,104.4,28.519,104.4l-11.475,9.891c-26.551-53.342-38.6-110.813-38.6-110.813" transform="translate(41.072 118.325)"/><path class="c" d="M38.844,101.851c0,.288.72,0-9.146-3.625-2.833-3-7.754-11.427-2.113-44.8l-9.6.288c-12.7,50.413,13.756,53.246,13.756,53.246l7.034-5.113Z" transform="translate(20.236 74.831)"/><path class="c" d="M43.827,98.226c2.833-3,7.754-11.427,2.137-44.8l9.6.288c12.7,50.413-13.756,53.246-13.756,53.246l-7.154-5.113C34.656,102.139,33.96,101.851,43.827,98.226Z" transform="translate(48.405 74.831)"/><path class="d" d="M26.523,79.811a54.59,54.59,0,0,1,47.8,1.032c9.218,30.56,9.6,29.528,9.6,29.528-45.612,20.189-69.162,0-69.162,0L26.5,80.339" transform="translate(20.553 104.768)"/><path class="e" d="M45.672,17.861S50.617,41.867,23.13,75.092c0,0-35.241-34.281,16.924-68.2" transform="translate(15.976 9.646)"/><g transform="translate(52.694 63.948)"><path class="f" d="M25.721,26.64c2.089,0,3.769,2.4,3.769,5.377h0c0,2.977-1.68,5.4-3.769,5.4S22,34.994,22,32.017,23.632,26.64,25.721,26.64Z" transform="translate(-22 -26.64)"/></g><g transform="translate(81.861 63.468)"><path class="f" d="M37.919,26.44c2.089,0,3.769,2.4,3.769,5.4h0c0,2.977-1.68,5.377-3.769,5.377s-3.769-2.4-3.769-5.377S35.83,26.44,37.919,26.44Z" transform="translate(-34.15 -26.44)"/></g><path class="e" d="M44.837,36.59a29.144,29.144,0,0,1-14.4,1.08,30.033,30.033,0,0,1-3.793-.984,10.563,10.563,0,0,0,9.771,5.377A11.067,11.067,0,0,0,44.837,36.59Z" transform="translate(37.193 51.244)"/><path class="e" d="M22.68,20.508S25.081,5.768,50.527,6.8C98.8,18.107,80.127,63,80.127,63c-49.693-8.57-56.679-42.827-56.679-42.827" transform="translate(31.646 9.448)"/><g transform="translate(26.623)"><path class="g" d="M20.73,17.666s.312,0,.936-7.442c8.186-23.838,14.188,1.488,14.188,1.488,12-1.488,12.915,3.889,12.915,3.889-6.29,9.218-21.438,7.442-21.438,7.442" transform="translate(2.292 -0.002)"/><path class="g" d="M39.2,14.066s-.336,0-.96,7.466c-8.186,23.838-14.188-1.488-14.188-1.488-12,1.488-12.915-3.889-12.915-3.889,6.29-9.242,21.438-7.442,21.438-7.442" transform="translate(-11.14 12)"/><path class="h" d="M19.26,12.637a6.314,6.314,0,0,1,12.6,0h0a6.314,6.314,0,0,1-12.6,0Z" transform="translate(0.233 9.397)"/></g><path class="i" d="M69.072,47c-18.485,10.419-28.807-1.44-28.807-1.44h.48a30.656,30.656,0,0,0-11.571,2.857S-9.236,81.259,30.566,76.05c0,0,6.938-4.177-6.026,54.758,0,0,15.292,12.507,57.9,0,0,0-6.962-2.593-6.026-54.758,0,0,44.916,2.665,6.026-26.071C71.833,42.129,68.976,47,68.976,47Z" transform="translate(17.399 63.734)"/><path class="j" d="M46.21,140.483v8.546c0,9.074,7.514-.5,7.514-.5l16.8-16.084c4.417-4.513-1.344-9.05-15.508.5Z" transform="translate(64.603 178.315)"/><path class="j" d="M15.774,107.937c1.08.48-2.737-4.2-4.8-7.01S2.787,103.327.05,129.494c0,0,3.817,25.759,15.844-21.606Z" transform="translate(-0.05 140.404)"/><g transform="translate(56.415 66.061)"><path d="M25.519,27.52c1.08,0,1.945,1.248,1.945,2.809h0c0,1.536-.864,2.785-1.945,2.785s-1.969-1.248-1.969-2.785S24.414,27.52,25.519,27.52Z" transform="translate(-23.55 -27.52)"/></g><g transform="translate(85.486 66.061)"><path d="M37.6,27.52c1.1,0,1.969,1.248,1.969,2.809h0c0,1.536-.864,2.785-1.969,2.785s-1.945-1.248-1.945-2.785S36.476,27.52,37.6,27.52Z" transform="translate(-35.66 -27.52)"/></g></g></g></g></g><rect width="5" height="37" transform="translate(1304 706)"/><ellipse cx="4.5" cy="9" rx="4.5" ry="9" transform="translate(1302 735)"/><g class="k" transform="translate(1304 735)"><rect class="m" width="5" height="1"/><rect class="n" x="0.5" y="0.5" width="4"/></g><g class="l" transform="translate(1304 734)"><rect class="m" width="5" height="1"/><rect class="n" x="0.5" y="0.5" width="4"/></g><g transform="translate(69 -2)"><rect width="4" height="32" transform="translate(1304 706)"/><ellipse cx="4" cy="8" rx="4" ry="8" transform="translate(1302 731)"/><g class="k" transform="translate(1304 731)"><rect class="m" width="4" height="1"/><rect class="n" x="0.5" y="0.5" width="3"/></g><g class="l" transform="translate(1304 730)"><rect class="m" width="4" height="1"/><rect class="n" x="0.5" y="0.5" width="3"/></g></g></g></svg>