<svg xmlns="http://www.w3.org/2000/svg" width="147.275" height="295.304" viewBox="0 0 147.275 295.304"><defs><style>.a{fill:rgba(41,41,41,0.23);}.b,.c{fill:#ffd8c5;}.c,.d,.e,.g,.h,.j,.k{fill-rule:evenodd;}.d{fill:#cf0505;}.e{fill:#ffad41;}.f{fill:#fff;}.h,.i{fill:#fff24a;}.j{fill:#faf558;}.k{fill:#803002;}</style></defs><g transform="translate(-81 -584.72)"><g transform="translate(81 584.72)"><g transform="translate(0 0)"><g transform="translate(0 0)"><ellipse class="a" cx="73.637" cy="8.859" rx="73.637" ry="8.859" transform="translate(0 277.586)"/><g transform="translate(15.342 0)"><g transform="translate(0 0)"><ellipse class="b" cx="38.328" cy="34.388" rx="38.328" ry="34.388" transform="translate(32.241 17.792)"/><path class="c" d="M28.519,38.73s6.943,4.921-5,15.886c0,0,20.391,12.6,34.231-.54,0,0-15.762-4.4-7.314-15.616" transform="translate(30.801 41.401)"/><path class="c" d="M59.241,88.748c.6,0,.6-1.059-16.479-1.578,0,0,.579-.54-1.18,36.444-1.18,9.511-1.18,10.03-34.162-3.7L4.48,135.243s0,.519,25.321,8.971C49.242,149.509,58.06,161.657,59.241,88.748Z" transform="translate(5.773 93.84)"/><path class="c" d="M29.41,90.062s7.661-9.511,21.965-3.7c7.337,61.819,27.5,90.31,27.5,90.31l-11.063,8.555C42.209,139.09,30.59,89.377,30.59,89.377" transform="translate(38.543 90.948)"/><path class="c" d="M37.972,95.314c0,.249.694,0-8.818-3.136-2.731-2.6-7.476-9.884-2.037-38.749l-9.258.249C5.615,97.287,31.121,99.737,31.121,99.737L37.9,95.314Z" transform="translate(18.988 57.517)"/><path class="c" d="M43.5,92.179c2.731-2.6,7.476-9.884,2.06-38.749l9.258.249C67.059,97.287,41.553,99.737,41.553,99.737l-6.9-4.423C34.656,95.563,33.985,95.314,43.5,92.179Z" transform="translate(45.426 57.517)"/><path class="d" d="M26.1,79.135a58.077,58.077,0,0,1,46.082.893c8.888,26.435,9.258,25.542,9.258,25.542-43.975,17.464-66.681,0-66.681,0L26.078,79.592" transform="translate(19.286 80.528)"/><path class="e" d="M36.773,40.115c-24.6,2.679,7.8,11.712-10.415,27.1S16.706,71.45,12.17,103.346c-1.828,12.958,1.042-.851-6.943-22.406-6.758-18.253,21.8-16.613,8.98-44.833C9.393,25.516,45.73-39.148,61.654,37.124" transform="translate(5.374 0.478)"/><path class="e" d="M44.446,16.38s4.768,20.766-21.733,49.505c0,0-33.977-29.653,16.317-59" transform="translate(14.99 7.414)"/><g transform="translate(50.803 55.316)"><path class="f" d="M25.587,26.64c2.014,0,3.634,2.077,3.634,4.652h0c0,2.575-1.62,4.672-3.634,4.672S22,33.866,22,31.292,23.574,26.64,25.587,26.64Z" transform="translate(-22 -26.64)"/></g><g transform="translate(78.924 54.9)"><path class="f" d="M37.784,26.44c2.014,0,3.634,2.077,3.634,4.672h0c0,2.575-1.62,4.652-3.634,4.652s-3.634-2.077-3.634-4.652S35.77,26.44,37.784,26.44Z" transform="translate(-34.15 -26.44)"/></g><path class="g" d="M44.184,36.59a31.172,31.172,0,0,1-13.887.934,31.674,31.674,0,0,1-3.657-.851,10.489,10.489,0,0,0,9.42,4.652A10.815,10.815,0,0,0,44.184,36.59Z" transform="translate(34.902 39.388)"/><path class="e" d="M22.68,18.65S24.994,5.9,49.528,6.793c46.544,9.781,28.538,48.612,28.538,48.612C30.156,47.992,23.421,18.36,23.421,18.36" transform="translate(29.697 7.261)"/><g transform="translate(25.668)"><path class="h" d="M20.73,15.282s.3,0,.9-6.437c7.892-20.62,13.679,1.287,13.679,1.287C46.884,8.844,47.763,13.5,47.763,13.5,41.7,21.47,27.095,19.933,27.095,19.933" transform="translate(1.466 -0.002)"/><path class="h" d="M38.2,13.324s-.324,0-.926,6.458c-7.892,20.62-13.679-1.287-13.679-1.287C12.02,19.782,11.14,15.131,11.14,15.131,17.2,7.136,31.808,8.693,31.808,8.693" transform="translate(-11.14 9.223)"/><path class="i" d="M19.26,11.837a5.849,5.849,0,0,1,6.076-5.125,5.849,5.849,0,0,1,6.076,5.125h0a5.849,5.849,0,0,1-6.076,5.125,5.849,5.849,0,0,1-6.076-5.125Z" transform="translate(-0.466 7.222)"/></g><path class="j" d="M67.042,46.8c-17.822,9.012-27.774-1.246-27.774-1.246h.463a32.335,32.335,0,0,0-11.156,2.471s-37.032,28.407,1.342,23.9c0,0,6.689-3.613-5.809,47.366,0,0,14.743,10.819,55.826,0,0,0-6.712-2.243-5.809-47.366,0,0,43.3,2.3,5.809-22.551C69.7,42.585,66.95,46.8,66.95,46.8Z" transform="translate(16.326 48.988)"/><path class="k" d="M46.21,138.706V146.1c0,7.849,7.244-.436,7.244-.436l16.2-13.913c4.259-3.9-1.3-7.829-14.952.436Z" transform="translate(60.627 137.058)"/><path class="k" d="M15.21,106.9c1.042.415-2.639-3.634-4.629-6.064S2.689,102.912.05,125.546c0,0,3.68,22.282,15.276-18.689Z" transform="translate(-0.05 107.918)"/><g transform="translate(54.391 57.143)"><path d="M25.448,27.52a2.2,2.2,0,0,1,1.875,2.43h0a2.189,2.189,0,0,1-1.875,2.409,2.205,2.205,0,0,1-1.9-2.409A2.21,2.21,0,0,1,25.448,27.52Z" transform="translate(-23.55 -27.52)"/></g><g transform="translate(82.419 57.143)"><path d="M37.535,27.52a2.2,2.2,0,0,1,1.9,2.43h0a2.189,2.189,0,0,1-1.9,2.409A2.173,2.173,0,0,1,35.66,29.95C35.66,28.621,36.447,27.52,37.535,27.52Z" transform="translate(-35.66 -27.52)"/></g></g></g></g></g></g></g></svg>