<svg xmlns="http://www.w3.org/2000/svg" width="173" height="387.28" viewBox="0 0 173 387.28"><defs><style>.a{fill:rgba(41,41,41,0.23);}.b,.c{fill:#ffd8c5;}.c,.d,.e,.g,.h,.j,.k{fill-rule:evenodd;}.d{fill:#afdde9;}.e{fill:#ffff5b;}.f{fill:#fff;}.h,.i{fill:#ff4100;}.j{fill:#ba9bc9;}.k{fill:#91abe2;}</style></defs><ellipse class="a" cx="86.5" cy="11.5" rx="86.5" ry="11.5" transform="translate(0 364.28)"/><g transform="translate(17.502 -0.002)"><g transform="translate(0.05 0.002)"><circle class="b" cx="45.098" cy="45.098" r="45.098" transform="translate(37.936 23.334)"/><path class="c" d="M29.4,38.814s8.17,6.454-5.882,20.833c0,0,23.993,16.531,40.278-.708,0,0-18.546-5.773-8.606-20.479" transform="translate(40.397 66.274)"/><path class="c" d="M68.914,89.24c.708,0,.708-1.389-19.39-2.07,0,0,.681-.708-1.389,47.794-1.389,12.473-1.389,13.154-40.2-4.848l-3.459,20.1s0,.681,29.793,11.765C57.149,168.925,67.525,184.856,68.914,89.24Z" transform="translate(7.584 150.217)"/><path class="c" d="M29.41,91.8s9.014-12.473,25.844-4.848C63.887,168.026,87.608,205.39,87.608,205.39L74.59,216.61C44.47,156.1,30.8,90.9,30.8,90.9" transform="translate(50.547 145.588)"/><path class="c" d="M42.112,108.36c0,.327.817,0-10.376-4.112-3.214-3.4-8.8-12.963-2.4-50.817l-10.893.327c-14.406,57.19,15.6,60.4,15.6,60.4l7.979-5.8Z" transform="translate(24.909 92.072)"/><path class="c" d="M45.061,104.247c3.214-3.4,8.8-12.963,2.424-50.817l10.893.327c14.406,57.19-15.6,60.4-15.6,60.4l-8.116-5.8C34.658,108.686,33.868,108.36,45.061,104.247Z" transform="translate(59.57 92.072)"/><path class="d" d="M28.1,80.484a61.929,61.929,0,0,1,54.222,1.171c10.458,34.668,10.893,33.5,10.893,33.5-51.743,22.9-78.459,0-78.459,0L28.077,81.084" transform="translate(25.3 128.907)"/><path class="e" d="M42.531,52.469c-28.949,3.513,9.178,15.36-12.255,35.539S18.92,93.564,13.582,135.395c-2.151,16.994,1.225-1.117-8.17-29.385-7.952-23.938,25.654-21.787,10.567-58.8C10.314,33.324,53.07-51.48,71.807,48.548" transform="translate(7.061 0.767)"/><path class="e" d="M50.267,19.336s5.61,27.233-25.572,64.924c0,0-39.978-38.889,19.2-77.37" transform="translate(19.668 11.869)"/><g transform="translate(59.777 72.544)"><path class="f" d="M26.221,26.64c2.369,0,4.276,2.723,4.276,6.1h0c0,3.377-1.906,6.127-4.276,6.127S22,36.117,22,32.74,23.852,26.64,26.221,26.64Z" transform="translate(-22 -26.64)"/></g><g transform="translate(92.866 72)"><path class="f" d="M38.426,26.44c2.369,0,4.276,2.723,4.276,6.127h0c0,3.377-1.906,6.1-4.276,6.1s-4.276-2.723-4.276-6.1S36.056,26.44,38.426,26.44Z" transform="translate(-34.15 -26.44)"/></g><path class="g" d="M47.283,36.59a33.061,33.061,0,0,1-16.34,1.226,34.071,34.071,0,0,1-4.3-1.117,11.983,11.983,0,0,0,11.084,6.1A12.555,12.555,0,0,0,47.283,36.59Z" transform="translate(45.773 63.052)"/><path class="e" d="M22.68,22.357S25.4,5.636,54.271,6.807C109.037,19.634,87.849,70.56,87.849,70.56c-56.373-9.722-64.3-48.584-64.3-48.584" transform="translate(38.949 11.625)"/><g transform="translate(30.202)"><path class="h" d="M20.73,20.04s.354,0,1.062-8.442c9.287-27.043,16.095,1.688,16.095,1.688C51.5,11.6,52.538,17.7,52.538,17.7,45.4,28.156,28.219,26.141,28.219,26.141" transform="translate(5.387 -0.002)"/><path class="h" d="M42.976,14.8s-.381,0-1.089,8.47C32.6,50.317,25.792,21.586,25.792,21.586,12.175,23.274,11.14,17.174,11.14,17.174,18.275,6.689,35.459,8.732,35.459,8.732" transform="translate(-11.14 14.766)"/><path class="i" d="M19.26,13.433a7.162,7.162,0,0,1,14.3,0h0a7.162,7.162,0,0,1-14.3,0Z" transform="translate(2.853 11.562)"/></g><path class="j" d="M76.676,47.2C55.706,59.023,44,45.569,44,45.569h.545A34.777,34.777,0,0,0,31.414,48.81s-43.573,37.255,1.58,31.346c0,0,7.87-4.739-6.836,62.119,0,0,17.348,14.189,65.687,0,0,0-7.9-2.941-6.836-62.119,0,0,50.954,3.023,6.836-29.575C79.808,41.675,76.567,47.2,76.567,47.2Z" transform="translate(21.419 78.419)"/><path class="k" d="M46.21,142.254v9.7c0,10.294,8.524-.572,8.524-.572L73.8,133.13c5.011-5.12-1.525-10.267-17.593.572Z" transform="translate(79.499 219.4)"/><path class="k" d="M17.888,108.97c1.225.545-3.1-4.766-5.447-7.952S3.155,103.741.05,133.426c0,0,4.33,29.221,17.974-24.51Z" transform="translate(-0.05 172.753)"/><g transform="translate(63.998 74.941)"><path d="M25.783,27.52c1.226,0,2.206,1.416,2.206,3.186h0c0,1.743-.98,3.159-2.206,3.159s-2.233-1.416-2.233-3.159S24.53,27.52,25.783,27.52Z" transform="translate(-23.55 -27.52)"/></g><g transform="translate(96.978 74.941)"><path d="M37.866,27.52c1.253,0,2.233,1.416,2.233,3.186h0c0,1.743-.98,3.159-2.233,3.159s-2.206-1.416-2.206-3.159S36.586,27.52,37.866,27.52Z" transform="translate(-35.66 -27.52)"/></g></g></g></svg>