<svg xmlns="http://www.w3.org/2000/svg" viewBox="0 0 263.41 97.96"><defs><style>.cls-1{fill:#a7ffa0;}.cls-2{fill:#6ada62;}.cls-3{fill:#c59876;}.cls-4{fill:none;stroke:#707070;stroke-width:0.25px;}.cls-5{fill:#c7fff7;}.cls-6{fill:#fff;}.cls-7{fill:#ff8080;}</style></defs><g id="Laag_2" data-name="Laag 2"><g id="Laag_1-2" data-name="Laag 1"><path class="cls-1" d="M263.41,88a71.38,71.38,0,0,1-.69,10H119.65A71.38,71.38,0,0,1,119,88a72.25,72.25,0,0,1,85.52-71c1.43.25,2.84.56,4.23.91,1.09.27,2.16.56,3.22.89,1.43.42,2.84.89,4.23,1.4A72.25,72.25,0,0,1,263.41,88Z"/><path class="cls-2" d="M139,98H0a72.26,72.26,0,0,1,139,0Z"/><path class="cls-3" d="M204.48,17.14V5.84L210.32,0l3.89,3.89,1.95,1.95V20.28l-6.7-2.11Z"/><path class="cls-4" d="M208.71,17.91v-6h3.22v6.91Z"/><circle class="cls-5" cx="210.29" cy="8.92" r="1.75"/><circle class="cls-4" cx="210.29" cy="8.92" r="1.71"/><line class="cls-4" x1="210.21" y1="7.25" x2="210.21" y2="10.58"/><line class="cls-4" x1="208.63" y1="9.01" x2="211.96" y2="9.01"/><circle class="cls-6" cx="211.35" cy="15.58" r="0.18"/><circle class="cls-4" cx="211.35" cy="15.58" r="0.09"/><path class="cls-7" d="M204.46,5.8h11.65L210.31,0Z"/></g></g></svg>