<svg xmlns="http://www.w3.org/2000/svg" width="700.613" height="497.144" viewBox="0 0 700.613 497.144"><rect width="18.491" height="212.42" transform="translate(181.279 284.724)" fill="#8c6239"/><rect width="18.491" height="212.178" transform="translate(494.31 283.169)" fill="#8c6239"/><path d="M700.613,0V288.423H199.667v-5.253H181.383v5.253H0V0Z" fill="#c69c6d"/><rect width="688.965" height="278.918" transform="translate(5.806 4.251)" fill="#5ebfff"/><path d="M58.605,83.45v.864l-1.175.76V83.45Z" transform="translate(141.061 204.973)" fill="#29abe2"/><path d="M70.763,81.93v5.253H69.588v1.624L52.48,99.8V81.93Z" transform="translate(128.903 201.239)" fill="none"/><path d="M299.48,90.954a240.761,240.761,0,0,1-87.408,185.392c-2.074,1.763-4.182,3.456-6.325,5.115H197.21v.242H178.927v-.242H1V1.23H282.1c.553,1.348,1.071,2.73,1.59,4.147A237.859,237.859,0,0,1,299.48,90.954Z" transform="translate(2.456 3.021)" fill="#60cdfc"/><line x1="30.864" transform="translate(171.118 282.927)" fill="none"/></svg>