<svg xmlns="http://www.w3.org/2000/svg" xmlns:xlink="http://www.w3.org/1999/xlink" width="67.143" height="66.699" viewBox="0 0 67.143 66.699"><defs><style>.a,.e{fill:none;}.b{clip-path:url(#a);}.c{fill:rgba(0,0,0,0);}.d{fill:#f1c232;}.e{stroke:#f1c232;stroke-linejoin:round;stroke-miterlimit:10;}.f{fill:#f35537;}.g{fill:#f39083;}.h{fill:#fff;}</style><clipPath id="a"><path class="a" d="M0,0H67.143V66.7H0Z"/></clipPath></defs><g class="b"><path class="c" d="M0,0H67.28V66.892H0Z"/><path class="d" d="M192.822,191.508c.1.366.134,10.3,1.055,12.8s4.484,2.065,4.473,2.223-3.846-1.645-4.539-1.271.561,3.6.383,3.515-.494-3.762-1.453-4.016-4.373,2.578-4.3,2.493,3.941-2.147,4.75-3,.168-.014.106-2.138-.574-10.97-.478-10.6Z" transform="translate(-146.685 -149.063)"/><path class="e" d="M192.822,191.508c.1.366.134,10.3,1.055,12.8s4.484,2.065,4.473,2.223-3.846-1.645-4.539-1.271.561,3.6.383,3.515-.494-3.762-1.453-4.016-4.373,2.578-4.3,2.493,3.941-2.147,4.75-3,.168-.014.106-2.138-.574-10.97-.478-10.6Z" transform="translate(-146.685 -149.063)"/><path class="f" d="M28.34,39.9c4.28-.615,9.844-1.843,13.06-4.842s3.817-10.095,6.239-13.152,4.913-4.883,8.292-5.192,9.5,1.255,11.981,3.334,3.308,3.924,2.925,9.14-1.6,16.319-5.221,22.152S55.5,62.867,49.091,64.182s-16.828-1.533-21.93-4.957S20.384,47.05,18.477,43.638s-4.4-4.265-2.758-4.888S24.06,40.515,28.34,39.9Z" transform="translate(-11.819 -12.979)"/><path class="g" d="M106.756,126.547c.55-1.959-8.161-3.466-11.971-3.591s-8.648,1.953-10.889,2.836-3.82.978-2.555,2.464S87.252,135,91.488,134.71s14.719-6.2,15.269-8.164Z" transform="translate(-62.967 -95.705)"/><path class="d" d="M231.5,72.283c-.7-.8,2.206-2.292,3.328-2.879s1.86-1.388,3.4-.643,5.724,4.213,5.857,5.116-2.958.564-5.056.3S232.2,73.078,231.5,72.283Z" transform="translate(-180.117 -53.289)"/><path d="M197.589,40.035h0a4.769,4.769,0,0,1,5.318-4.117h0a4.769,4.769,0,0,1,4.66,4.849h0a4.769,4.769,0,0,1-5.318,4.117h0A4.769,4.769,0,0,1,197.589,40.035Z" transform="translate(-153.796 -27.947)"/><path class="h" d="M216.834,54.042h0a2.126,2.126,0,0,1,2.419-1.747h0a2.126,2.126,0,0,1,2.138,2.081h0a2.126,2.126,0,0,1-2.419,1.747h0A2.126,2.126,0,0,1,216.834,54.042Z" transform="translate(-168.781 -40.701)"/><path class="d" d="M154.119,208.815c-.092.386.315,10.831-.608,13.47s-4.949,2.2-4.93,2.366,4.251-1.754,5.046-1.365-.468,3.789-.272,3.7.386-3.96,1.452-4.233,5.035,2.684,4.946,2.595-4.529-2.234-5.478-3.13-.189-.014-.216-2.248.149-11.541.058-11.155Z" transform="translate(-115.657 -162.534)"/><path class="e" d="M154.119,208.815c-.092.386.315,10.831-.608,13.47s-4.949,2.2-4.93,2.366,4.251-1.754,5.046-1.365-.468,3.789-.272,3.7.386-3.96,1.452-4.233,5.035,2.684,4.946,2.595-4.529-2.234-5.478-3.13-.189-.014-.216-2.248.149-11.541.058-11.155Z" transform="translate(-115.657 -162.534)"/></g></svg>