<svg xmlns="http://www.w3.org/2000/svg" viewBox="0 0 10.85 43.53"><defs><style>.cls-1{fill:#a67c52;}.cls-2{fill:#ff3900;}</style></defs><g id="Laag_2" data-name="Laag 2"><g id="Laag_1-2" data-name="Laag 1"><path class="cls-1" d="M7.19,28.86,6.84,5.4l3.54-2.7L10.85,0H0L.71,2.36,4,5.4V29L1.3,34.76,0,43.53H10.85L9.79,34.92ZM1,1.81.67.54h9.52L9.72,2.45,6.88,4.34H4L1.14,1.94Z"/><polygon class="cls-2" points="4.01 29.02 7.19 28.86 9.79 34.92 10.85 43.53 0 43.53 1.3 34.76 4.01 29.02"/><path class="cls-2" d="M0,0,.71,2.36,4,5.4H6.84l3.54-2.7L10.85,0ZM.71.54h9.48L9.72,2.45,6.88,4.34H4L1.14,1.94Z"/><polygon class="cls-2" points="10.4 0.42 9.98 2.44 6.64 5.02 4.21 5.02 1.19 2.1 1.14 1.94 3.99 4.34 6.88 4.34 9.72 2.45 10.19 0.54 0.71 0.54 0.67 0.42 10.4 0.42"/></g></g></svg>