<svg xmlns="http://www.w3.org/2000/svg" width="445" height="184.911" viewBox="0 0 445 184.911"><defs><style>.a{fill:#fff;}</style></defs><ellipse class="a" cx="53" cy="28.5" rx="53" ry="28.5" transform="translate(25 60.911)"/><circle class="a" cx="53" cy="53" r="53" transform="matrix(-0.259, -0.966, 0.966, -0.259, 93.523, 129.823)"/><circle class="a" cx="54" cy="54" r="54" transform="translate(118 76.911)"/><circle class="a" cx="39.5" cy="39.5" r="39.5" transform="translate(78 89.911)"/><circle class="a" cx="65" cy="65" r="65" transform="translate(147 22.911)"/><circle class="a" cx="62" cy="62" r="62" transform="translate(250 44.911)"/><circle class="a" cx="47.5" cy="47.5" r="47.5" transform="translate(196 89.911)"/><circle class="a" cx="47.5" cy="47.5" r="47.5" transform="translate(265.253 8.576) rotate(22)"/><ellipse class="a" cx="48" cy="26.5" rx="48" ry="26.5" transform="translate(244 131.911)"/><ellipse class="a" cx="28" cy="40.5" rx="28" ry="40.5" transform="translate(340 87.911)"/><ellipse class="a" cx="25.5" cy="31" rx="25.5" ry="31" transform="translate(368 106.911)"/><ellipse class="a" cx="19" cy="15.5" rx="19" ry="15.5" transform="translate(407 137.911)"/><ellipse class="a" cx="26.5" cy="34.5" rx="26.5" ry="34.5" transform="translate(37 89.911)"/><ellipse class="a" cx="33" cy="30.5" rx="33" ry="30.5" transform="translate(0 69.911)"/></svg>