<svg xmlns="http://www.w3.org/2000/svg" width="330.097" height="164.895" viewBox="0 0 330.097 164.895"><defs><style>.a{fill:#fff;}</style></defs><g transform="matrix(-0.99, 0, 0, 1, 325.922, 10.546)"><ellipse class="a" cx="53" cy="28.5" rx="53" ry="28.5" transform="translate(25 35.24)"/><circle class="a" cx="53" cy="53" r="53" transform="matrix(-0.259, -0.966, 0.966, -0.259, 93.523, 129.823)"/><circle class="a" cx="54" cy="54" r="54" transform="translate(78.693 23.003)"/><circle class="a" cx="39.5" cy="39.5" r="39.5" transform="translate(54.076 36.003)"/><circle class="a" cx="65" cy="65" r="65" transform="translate(94.613 22.911)"/><circle class="a" cx="62" cy="62" r="62" transform="translate(162.572 -8.997)"/><circle class="a" cx="47.5" cy="47.5" r="47.5" transform="translate(133.135 36.003)"/><circle class="a" cx="47.5" cy="47.5" r="47.5" transform="translate(185.018 8.576) rotate(22)"/><ellipse class="a" cx="48" cy="26.5" rx="48" ry="26.5" transform="translate(165.516 78.003)"/><ellipse class="a" cx="28" cy="40.5" rx="28" ry="40.5" transform="translate(227.742 34.003)"/><ellipse class="a" cx="25.5" cy="31" rx="25.5" ry="31" transform="translate(255.742 53.003)"/><ellipse class="a" cx="19" cy="15.5" rx="19" ry="15.5" transform="translate(294.742 84.003)"/><ellipse class="a" cx="26.5" cy="34.5" rx="26.5" ry="34.5" transform="translate(37 36.003)"/><ellipse class="a" cx="33" cy="30.5" rx="33" ry="30.5" transform="translate(0 39.496)"/></g></svg>