<svg xmlns="http://www.w3.org/2000/svg" width="152.28" height="50.21" viewBox="0 0 152.28 50.21"><defs><style>.cls-1{fill:#fafe9b;}.cls-2{fill:#a67c52;}.cls-3{fill:#ff3900;}.cls-4{fill:#fcffa7;}.cls-5{fill:#7c5a2c;}.cls-6,.cls-8{fill:none;}.cls-7{fill:#4d4d4d;}.cls-8{stroke:#4d4d4d;stroke-miterlimit:11.18;}.cls-9{fill:red;}.cls-10{fill:#fff;}.cls-11{fill:#fcff7b;}.cls-12{fill:#8e8e87;}.cls-13{fill:#cd1231;}</style></defs><g id="Laag_2" data-name="Laag 2"><g id="Laag_1-2" data-name="Laag 1"><path class="cls-1" d="M105.24,22.76l8.28-15.63h-8.28v-3h12.64v3l-8,15.63Z"/><path class="cls-1" d="M97.65,22.94h3.53v-19H97.65a1.64,1.64,0,0,1-1,1.16,9.54,9.54,0,0,1-2.57.58v2h3.55Z"/><path class="cls-2" d="M76.19,29.9l-1.35-5.12.62-.79,0-.61L73,24l.29.48.88.48L75.5,30.1l-.27,1.41.19,2,2.38-.6-.71-1.83Zm-2.83-5.59-.14-.26,2.08-.52V24l-.52.56-.63.16-.76-.37Z"/><path class="cls-3" d="M75.51,30.11l.68-.21.9,1.18.71,1.83-2.38.6-.19-2Z"/><path class="cls-3" d="M73,24l.29.48.88.48.63-.15.62-.79,0-.61Zm.19.08,2.07-.52V24l-.52.56-.63.16-.76-.37Z"/><path class="cls-3" d="M75.34,23.49l0,.47-.59.75-.53.13-.82-.48,0,0,.75.37.64-.16.52-.56v-.45l-2.07.52,0,0Z"/><path class="cls-4" d="M10,50.21l-3-4,7.51-3.38,3.63-.95h6.1l8.27-2.47h5.81L43.14,41l5.75-1.54h4.66L57.46,41,64.9,35.8l8.32-2.18L80.29,32l5.17-4.54,5.67-3.53,8.32-2.78h11.47l8.71,4.76,7,9.91,6.24,6.08,5.81,4.33L144,48.8l8.27,1.41"/><rect class="cls-5" x="4.34" y="45.93" width="76.75" height="4.28"/><line class="cls-6" x1="7.64" y1="45.94" x2="7.64" y2="50.21"/><line class="cls-6" x1="9.89" y1="45.94" x2="9.89" y2="50.21"/><line class="cls-6" x1="5.39" y1="45.94" x2="5.39" y2="50.21"/><line class="cls-6" x1="12.14" y1="45.94" x2="12.14" y2="50.21"/><line class="cls-6" x1="14.39" y1="45.94" x2="14.39" y2="50.21"/><line class="cls-6" x1="16.64" y1="45.94" x2="16.64" y2="50.21"/><line class="cls-6" x1="18.9" y1="45.94" x2="18.9" y2="50.21"/><line class="cls-6" x1="21.15" y1="45.94" x2="21.15" y2="50.21"/><line class="cls-6" x1="23.4" y1="45.94" x2="23.4" y2="50.21"/><line class="cls-6" x1="25.65" y1="45.94" x2="25.65" y2="50.21"/><line class="cls-6" x1="27.9" y1="45.94" x2="27.9" y2="50.21"/><line class="cls-6" x1="30.15" y1="45.94" x2="30.15" y2="50.21"/><line class="cls-6" x1="32.4" y1="45.94" x2="32.4" y2="50.21"/><line class="cls-6" x1="34.65" y1="45.94" x2="34.65" y2="50.21"/><line class="cls-6" x1="36.9" y1="45.94" x2="36.9" y2="50.21"/><line class="cls-6" x1="39.16" y1="45.94" x2="39.16" y2="50.21"/><line class="cls-6" x1="41.41" y1="45.94" x2="41.41" y2="50.21"/><line class="cls-6" x1="43.66" y1="45.94" x2="43.66" y2="50.21"/><line class="cls-6" x1="45.91" y1="45.94" x2="45.91" y2="50.21"/><line class="cls-6" x1="48.16" y1="45.94" x2="48.16" y2="50.21"/><line class="cls-6" x1="50.41" y1="45.94" x2="50.41" y2="50.21"/><line class="cls-6" x1="52.66" y1="45.94" x2="52.66" y2="50.21"/><line class="cls-6" x1="54.91" y1="45.94" x2="54.91" y2="50.21"/><line class="cls-6" x1="57.16" y1="45.94" x2="57.16" y2="50.21"/><line class="cls-6" x1="59.41" y1="45.94" x2="59.41" y2="50.21"/><line class="cls-6" x1="61.67" y1="45.94" x2="61.67" y2="50.21"/><line class="cls-6" x1="63.92" y1="45.94" x2="63.92" y2="50.21"/><line class="cls-6" x1="66.17" y1="45.94" x2="66.17" y2="50.21"/><line class="cls-6" x1="68.42" y1="45.94" x2="68.42" y2="50.21"/><line class="cls-6" x1="70.67" y1="45.94" x2="70.67" y2="50.21"/><line class="cls-6" x1="72.92" y1="45.94" x2="72.92" y2="50.21"/><line class="cls-6" x1="75.17" y1="45.94" x2="75.17" y2="50.21"/><line class="cls-6" x1="77.42" y1="45.94" x2="77.42" y2="50.21"/><line class="cls-6" x1="79.67" y1="45.94" x2="79.67" y2="50.21"/><g id="g4"><g id="g6"><path id="path8" class="cls-7" d="M21.4,6.4C20.87,5.17,20.29,4,19.7,2.82c-.48-.94-1-1.9-1.49-2.82.13,1.05.21,2.1.29,3.16.1,1.29.18,2.58.19,3.84l2.71-.6Z"/><path id="path10" class="cls-8" d="M31.34,42.27c-3.85-10.8-7.68-22.83-10.78-34.35"/><path id="path12" class="cls-9" d="M0,17.25c2.94,2.5,6.78,1,8-2.56,3.81,2.44,7.19,1.13,10.35-2.45,4.83,1.36,6,.58,9.05-3.24,3.65,3,6.63.85,9-2.19,3.28,1.83,7.56,3.1,10.32-.15C28.33-2.3,10.89-.25,0,17.25Z"/><path id="path14" class="cls-10" d="M19.05,2.41C22.54,4,24.93,6.49,27.37,9l0,.07,0,0c3.65,3,6.63.86,9-2.18C32.42,4.9,31,2.31,19.05,2.41Z"/><path id="path16" class="cls-10" d="M19.07,2.5c-6.74,3.83-10.61,7.89-11,12.22,3.67,2.32,7,1.16,10-2.15-1.23-4.62-.91-7,1-10.07Z"/></g></g><path class="cls-11" d="M51,33.27a.08.08,0,0,1,.07.07l-.57,6.24H39.21l-.47-6.24a.08.08,0,0,1,.08-.07h.93a.08.08,0,0,1,.07.07v.75a.08.08,0,0,0,.07.07h1.32a.07.07,0,0,0,.07-.07v-.75a.07.07,0,0,1,.07-.07h.93a.06.06,0,0,0,.07-.07V30.76a.11.11,0,0,1,.1-.1h.89a.1.1,0,0,1,.1.1v.7a.1.1,0,0,0,.09.1h.73a.1.1,0,0,0,.09-.1v-.7a.1.1,0,0,1,.1-.1h.89a.1.1,0,0,1,.1.1v.7a.1.1,0,0,0,.09.1h.73a.1.1,0,0,0,.09-.1v-.7a.1.1,0,0,1,.09-.1h.9a.1.1,0,0,1,.09.1V33.2a.08.08,0,0,0,.07.07h.94a.07.07,0,0,1,.07.07v.75a.07.07,0,0,0,.07.07H49.9a.08.08,0,0,0,.07-.07v-.75a.08.08,0,0,1,.07-.07Z"/><path class="cls-12" d="M45.13,27.64a.21.21,0,0,1-.08.17.05.05,0,0,0,0,0v3.31h-.21V27.85s0,0,0,0a.21.21,0,0,1,.09-.38A.22.22,0,0,1,45.13,27.64Z"/><path class="cls-13" d="M47.52,28.6c0,.11,0,.21,0,.32a1,1,0,0,1-.35.6,1,1,0,0,1-.93.09A.94.94,0,0,0,45,30V27.51c.95-.52,1.51,1.67,2.48,1.06C47.49,28.56,47.53,28.57,47.52,28.6Z"/><path class="cls-4" d="M51.71,39.35c0-.41-.47-.75-1.08-.79L51,34.91H47.47V32.12H42.38v2.94h-3.5l.29,3.88h0c-.67,0-1.21.36-1.21.8v.07h0c0,1.06,2.32,1,2.32,1a7,7,0,0,0,2.2.44c.42,0,1.8-.24,2.24-.24.66,0,1.89.27,2.49.24a12.27,12.27,0,0,0,2.08-.38,12.88,12.88,0,0,0,2.2-.76c.19-.13.26-.3.14-.45h0A.61.61,0,0,0,51.71,39.35ZM40.57,38.18a0,0,0,0,1,0,0h-.69a0,0,0,0,1,0,0V36.4a.38.38,0,1,1,.76,0v1.78Zm1.47,0a0,0,0,0,1,0,0h-.7a0,0,0,0,1,0,0V36.4a.38.38,0,1,1,.76,0Zm3-5.3a.44.44,0,0,1,.44-.43.38.38,0,0,1,.3.13.4.4,0,0,1,.13.3v.35a.08.08,0,0,1-.07.07h-.73a.08.08,0,0,1-.07-.07Zm-1.16,0a.43.43,0,0,1,.43-.43.4.4,0,0,1,.31.13.43.43,0,0,1,.12.3v.35a.08.08,0,0,1-.07.07H44a.07.07,0,0,1-.07-.07Zm0,1.16a.21.21,0,0,1,.21-.22h1.6a.22.22,0,0,1,.22.22v.67a.2.2,0,0,1-.2.2H44.11a.2.2,0,0,1-.2-.2V34Zm-1.17-.81v-.35a.43.43,0,0,1,.43-.43.44.44,0,0,1,.44.43v.35a.08.08,0,0,1-.07.07h-.73A.08.08,0,0,1,42.74,33.23ZM46.8,39a2.11,2.11,0,0,0-.52-.07,1.39,1.39,0,0,0-1,.37,1.7,1.7,0,0,0-.46-.06,1.78,1.78,0,0,0-.47.06,1.39,1.39,0,0,0-1-.37,1.84,1.84,0,0,0-.47.06c.15-2,1-3.52,2.11-3.52s1.93,1.47,2.1,3.42Zm.31-5.78a.08.08,0,0,1-.07.07h-.73a.07.07,0,0,1-.07-.07v-.35a.43.43,0,0,1,.43-.43.4.4,0,0,1,.31.13.44.44,0,0,1,.13.3Zm1.45,5a0,0,0,0,1,0,0h-.7a0,0,0,0,1,0,0V36.4a.38.38,0,0,1,.38-.39.4.4,0,0,1,.27.12.37.37,0,0,1,.11.27Zm1.46,0s0,0,0,0h-.71a0,0,0,0,1,0,0V36.4a.38.38,0,1,1,.76,0Z"/><ellipse class="cls-4" cx="30.41" cy="42.69" rx="2.51" ry="1.4"/></g></g></svg>